<svg width="1047" height="184" viewBox="0 0 1047 184" fill="none" xmlns="http://www.w3.org/2000/svg">
<g filter="url(#filter0_d_12_4)">
<path d="M3.43182 174V5.27272H60.4432C73.625 5.27272 84.4451 7.52462 92.9034 12.0284C101.362 16.4773 107.623 22.6013 111.688 30.4006C115.752 38.1998 117.784 47.0701 117.784 57.0114C117.784 66.9526 115.752 75.768 111.688 83.4574C107.623 91.1468 101.389 97.1884 92.9858 101.582C84.5824 105.921 73.8447 108.091 60.7727 108.091H14.6364V89.6364H60.1136C69.1212 89.6364 76.3712 88.3182 81.8636 85.6818C87.411 83.0455 91.4205 79.3106 93.892 74.4773C96.4186 69.589 97.6818 63.767 97.6818 57.0114C97.6818 50.2557 96.4186 44.3513 93.892 39.2983C91.3655 34.2453 87.3286 30.3456 81.7812 27.5994C76.2339 24.7983 68.9015 23.3977 59.7841 23.3977H23.8636V174H3.43182ZM82.8523 98.2045L124.375 174H100.648L59.7841 98.2045H82.8523ZM186.433 176.966C178.414 176.966 171.136 175.455 164.6 172.435C158.064 169.359 152.874 164.938 149.029 159.17C145.184 153.348 143.262 146.318 143.262 138.08C143.262 130.83 144.69 124.953 147.546 120.449C150.402 115.89 154.219 112.32 158.998 109.739C163.776 107.157 169.049 105.235 174.816 103.972C180.638 102.653 186.487 101.61 192.364 100.841C200.054 99.8523 206.288 99.1108 211.066 98.6165C215.899 98.0672 219.415 97.161 221.612 95.8977C223.863 94.6345 224.989 92.4375 224.989 89.3068V88.6477C224.989 80.5189 222.765 74.2026 218.316 69.6989C213.922 65.1951 207.249 62.9432 198.296 62.9432C189.014 62.9432 181.737 64.9754 176.464 69.0398C171.191 73.1042 167.484 77.4432 165.342 82.0568L146.887 75.4659C150.183 67.7765 154.576 61.7898 160.069 57.5057C165.616 53.1667 171.658 50.1458 178.194 48.4432C184.785 46.6856 191.266 45.8068 197.637 45.8068C201.701 45.8068 206.37 46.3011 211.643 47.2898C216.97 48.2235 222.106 50.1733 227.049 53.1392C232.047 56.1051 236.194 60.5814 239.489 66.5682C242.785 72.5549 244.433 80.5739 244.433 90.625V174H224.989V156.864H224.001C222.683 159.61 220.486 162.548 217.41 165.679C214.334 168.81 210.242 171.473 205.134 173.67C200.026 175.867 193.792 176.966 186.433 176.966ZM189.398 159.5C197.088 159.5 203.569 157.99 208.842 154.969C214.169 151.948 218.179 148.048 220.87 143.27C223.616 138.491 224.989 133.466 224.989 128.193V110.398C224.165 111.386 222.353 112.293 219.552 113.116C216.806 113.885 213.62 114.572 209.995 115.176C206.425 115.725 202.937 116.22 199.532 116.659C196.182 117.044 193.463 117.373 191.376 117.648C186.323 118.307 181.599 119.378 177.205 120.861C172.866 122.289 169.351 124.458 166.66 127.369C164.023 130.225 162.705 134.125 162.705 139.068C162.705 145.824 165.204 150.932 170.202 154.392C175.255 157.797 181.654 159.5 189.398 159.5ZM327.705 176.636C317.159 176.636 307.849 173.973 299.776 168.645C291.702 163.262 285.385 155.683 280.827 145.906C276.268 136.075 273.989 124.458 273.989 111.057C273.989 97.7651 276.268 86.2311 280.827 76.4545C285.385 66.678 291.729 59.1259 299.858 53.7983C307.987 48.4706 317.379 45.8068 328.034 45.8068C336.273 45.8068 342.781 47.1799 347.56 49.9261C352.393 52.6174 356.073 55.6932 358.599 59.1534C361.181 62.5587 363.186 65.3598 364.614 67.5568H366.261V5.27272H385.705V174H366.92V154.557H364.614C363.186 156.864 361.153 159.775 358.517 163.29C355.881 166.75 352.118 169.853 347.23 172.599C342.342 175.291 335.833 176.636 327.705 176.636ZM330.341 159.17C338.14 159.17 344.731 157.138 350.114 153.074C355.496 148.955 359.588 143.27 362.389 136.02C365.19 128.715 366.591 120.284 366.591 110.727C366.591 101.28 365.218 93.0142 362.472 85.929C359.725 78.7888 355.661 73.2415 350.278 69.2869C344.896 65.2775 338.25 63.2727 330.341 63.2727C322.102 63.2727 315.237 65.3873 309.744 69.6165C304.307 73.7907 300.215 79.4754 297.469 86.6705C294.777 93.8106 293.432 101.83 293.432 110.727C293.432 119.735 294.805 127.919 297.551 135.278C300.352 142.583 304.472 148.405 309.909 152.744C315.402 157.028 322.212 159.17 330.341 159.17ZM424.014 174V47.4545H443.457V174H424.014ZM433.901 26.3636C430.111 26.3636 426.843 25.0729 424.097 22.4915C421.405 19.91 420.06 16.8068 420.06 13.1818C420.06 9.55682 421.405 6.4536 424.097 3.87215C426.843 1.29072 430.111 0 433.901 0C437.69 0 440.931 1.29072 443.622 3.87215C446.368 6.4536 447.741 9.55682 447.741 13.1818C447.741 16.8068 446.368 19.91 443.622 22.4915C440.931 25.0729 437.69 26.3636 433.901 26.3636ZM558.819 122.261V47.4545H578.262V174H558.819V152.58H557.501C554.535 159.006 549.921 164.471 543.66 168.974C537.398 173.423 529.489 175.648 519.933 175.648C512.023 175.648 504.993 173.918 498.842 170.457C492.69 166.942 487.857 161.67 484.342 154.639C480.826 147.554 479.069 138.629 479.069 127.864V47.4545H498.512V126.545C498.512 135.773 501.094 143.133 506.256 148.625C511.474 154.117 518.12 156.864 526.194 156.864C531.027 156.864 535.943 155.628 540.941 153.156C545.994 150.685 550.223 146.895 553.629 141.787C557.089 136.679 558.819 130.17 558.819 122.261ZM613.874 174V47.4545H632.658V67.2273H634.305C636.942 60.4716 641.198 55.2263 647.075 51.4915C652.952 47.7017 660.01 45.8068 668.249 45.8068C676.597 45.8068 683.545 47.7017 689.092 51.4915C694.695 55.2263 699.061 60.4716 702.192 67.2273H703.51C706.75 60.6913 711.611 55.5009 718.092 51.6562C724.573 47.7566 732.345 45.8068 741.408 45.8068C752.722 45.8068 761.977 49.3494 769.172 56.4347C776.367 63.465 779.964 74.4223 779.964 89.3068V174H760.521V89.3068C760.521 79.9697 757.967 73.2964 752.859 69.2869C747.751 65.2775 741.737 63.2727 734.817 63.2727C725.919 63.2727 719.026 65.964 714.138 71.3466C709.25 76.6742 706.805 83.4299 706.805 91.6136V174H687.033V87.3295C687.033 80.1345 684.698 74.34 680.03 69.946C675.361 65.4972 669.347 63.2727 661.987 63.2727C656.934 63.2727 652.211 64.6184 647.817 67.3097C643.478 70.0009 639.963 73.7358 637.271 78.5142C634.635 83.2377 633.317 88.7027 633.317 94.9091V174H613.874ZM829.685 175.318C825.62 175.318 822.133 173.863 819.222 170.952C816.311 168.041 814.855 164.553 814.855 160.489C814.855 156.424 816.311 152.937 819.222 150.026C822.133 147.115 825.62 145.659 829.685 145.659C833.749 145.659 837.237 147.115 840.148 150.026C843.059 152.937 844.514 156.424 844.514 160.489C844.514 163.18 843.828 165.652 842.455 167.903C841.136 170.155 839.351 171.968 837.099 173.341C834.902 174.659 832.431 175.318 829.685 175.318ZM879.405 174V47.4545H898.848V174H879.405ZM889.291 26.3636C885.501 26.3636 882.233 25.0729 879.487 22.4915C876.796 19.91 875.45 16.8068 875.45 13.1818C875.45 9.55682 876.796 6.4536 879.487 3.87215C882.233 1.29072 885.501 0 889.291 0C893.081 0 896.321 1.29072 899.013 3.87215C901.759 6.4536 903.132 9.55682 903.132 13.1818C903.132 16.8068 901.759 19.91 899.013 22.4915C896.321 25.0729 893.081 26.3636 889.291 26.3636ZM985.869 176.636C974.444 176.636 964.421 173.918 955.798 168.48C947.229 163.043 940.529 155.436 935.695 145.659C930.917 135.883 928.528 124.458 928.528 111.386C928.528 98.2045 930.917 86.6979 935.695 76.8665C940.529 67.035 947.229 59.4006 955.798 53.9631C964.421 48.5256 974.444 45.8068 985.869 45.8068C997.293 45.8068 1007.29 48.5256 1015.86 53.9631C1024.48 59.4006 1031.18 67.035 1035.96 76.8665C1040.79 86.6979 1043.21 98.2045 1043.21 111.386C1043.21 124.458 1040.79 135.883 1035.96 145.659C1031.18 155.436 1024.48 163.043 1015.86 168.48C1007.29 173.918 997.293 176.636 985.869 176.636ZM985.869 159.17C994.547 159.17 1001.69 156.946 1007.29 152.497C1012.89 148.048 1017.04 142.199 1019.73 134.949C1022.42 127.699 1023.77 119.845 1023.77 111.386C1023.77 102.928 1022.42 95.0464 1019.73 87.7415C1017.04 80.4366 1012.89 74.5322 1007.29 70.0284C1001.69 65.5246 994.547 63.2727 985.869 63.2727C977.191 63.2727 970.05 65.5246 964.448 70.0284C958.846 74.5322 954.699 80.4366 952.008 87.7415C949.317 95.0464 947.971 102.928 947.971 111.386C947.971 119.845 949.317 127.699 952.008 134.949C954.699 142.199 958.846 148.048 964.448 152.497C970.05 156.946 977.191 159.17 985.869 159.17Z" fill="url(#paint0_linear_12_4)" shape-rendering="crispEdges"/>
</g>
<defs>
<filter id="filter0_d_12_4" x="0.431885" y="0" width="1045.78" height="183.966" filterUnits="userSpaceOnUse" color-interpolation-filters="sRGB">
<feFlood flood-opacity="0" result="BackgroundImageFix"/>
<feColorMatrix in="SourceAlpha" type="matrix" values="0 0 0 0 0 0 0 0 0 0 0 0 0 0 0 0 0 0 127 0" result="hardAlpha"/>
<feOffset dy="4"/>
<feGaussianBlur stdDeviation="1.5"/>
<feComposite in2="hardAlpha" operator="out"/>
<feColorMatrix type="matrix" values="0 0 0 0 0 0 0 0 0 0 0 0 0 0 0 0 0 0 1 0"/>
<feBlend mode="normal" in2="BackgroundImageFix" result="effect1_dropShadow_12_4"/>
<feBlend mode="normal" in="SourceGraphic" in2="effect1_dropShadow_12_4" result="shape"/>
</filter>
<linearGradient id="paint0_linear_12_4" x1="-17" y1="89.5" x2="1043" y2="89" gradientUnits="userSpaceOnUse">
<stop stop-opacity="0.8"/>
<stop offset="0.396" stop-color="#2E2E2E"/>
<stop offset="1" stop-color="#666666"/>
</linearGradient>
</defs>
</svg>
