<svg width="1613" height="520" viewBox="0 0 1613 520" fill="none" xmlns="http://www.w3.org/2000/svg">
<g filter="url(#filter0_d_12_7)">
<rect x="4" width="512" height="512" rx="85" fill="url(#paint0_linear_12_7)"/>
<path d="M90.9744 376V136.727H171.822C190.516 136.727 205.86 139.921 217.854 146.308C229.849 152.616 238.728 161.301 244.492 172.361C250.256 183.421 253.138 196 253.138 210.098C253.138 224.196 250.256 236.697 244.492 247.601C238.728 258.506 229.888 267.073 217.971 273.304C206.054 279.458 190.827 282.534 172.29 282.534H106.864V256.364H171.355C184.129 256.364 194.41 254.494 202.199 250.756C210.066 247.017 215.751 241.721 219.256 234.866C222.839 227.934 224.631 219.678 224.631 210.098C224.631 200.518 222.839 192.145 219.256 184.979C215.674 177.813 209.949 172.283 202.082 168.389C194.215 164.417 183.817 162.43 170.888 162.43H119.949V376H90.9744ZM203.601 268.514L262.484 376H228.837L170.888 268.514H203.601ZM350.488 380.206C339.117 380.206 328.796 378.064 319.528 373.78C310.259 369.418 302.899 363.148 297.446 354.97C291.994 346.714 289.268 336.744 289.268 325.061C289.268 314.78 291.293 306.446 295.343 300.059C299.394 293.594 304.807 288.531 311.583 284.871C318.359 281.21 325.837 278.484 334.015 276.692C342.271 274.823 350.566 273.343 358.9 272.253C369.805 270.851 378.645 269.799 385.421 269.098C392.275 268.319 397.26 267.034 400.376 265.243C403.569 263.451 405.166 260.336 405.166 255.896V254.962C405.166 243.434 402.011 234.477 395.703 228.09C389.471 221.703 380.008 218.51 367.312 218.51C354.149 218.51 343.829 221.392 336.352 227.156C328.874 232.919 323.617 239.072 320.579 245.615L294.409 236.268C299.082 225.364 305.313 216.874 313.102 210.799C320.969 204.646 329.536 200.362 338.805 197.947C348.152 195.455 357.343 194.209 366.378 194.209C372.141 194.209 378.762 194.91 386.239 196.312C393.794 197.636 401.077 200.401 408.087 204.607C415.175 208.813 421.055 215.161 425.728 223.651C430.402 232.14 432.738 243.512 432.738 257.766V376H405.166V351.699H403.764C401.895 355.593 398.779 359.76 394.417 364.2C390.056 368.64 384.253 372.417 377.009 375.533C369.766 378.648 360.925 380.206 350.488 380.206ZM354.694 355.438C365.599 355.438 374.79 353.296 382.267 349.012C389.822 344.728 395.508 339.198 399.324 332.422C403.219 325.645 405.166 318.518 405.166 311.041V285.805C403.998 287.207 401.427 288.493 397.455 289.661C393.561 290.751 389.043 291.725 383.902 292.582C378.84 293.361 373.894 294.062 369.065 294.685C364.314 295.23 360.458 295.697 357.498 296.087C350.333 297.021 343.634 298.54 337.403 300.643C331.25 302.668 326.265 305.745 322.449 309.873C318.71 313.923 316.841 319.453 316.841 326.463C316.841 336.043 320.385 343.287 327.472 348.194C334.638 353.023 343.712 355.438 354.694 355.438Z" fill="white"/>
</g>
<g filter="url(#filter1_d_12_7)">
<path d="M560.432 376V207.273H617.443C630.625 207.273 641.445 209.525 649.903 214.028C658.362 218.477 664.623 224.601 668.688 232.401C672.752 240.2 674.784 249.07 674.784 259.011C674.784 268.953 672.752 277.768 668.688 285.457C664.623 293.147 658.389 299.188 649.986 303.582C641.582 307.921 630.845 310.091 617.773 310.091H571.636V291.636H617.114C626.121 291.636 633.371 290.318 638.864 287.682C644.411 285.045 648.42 281.311 650.892 276.477C653.419 271.589 654.682 265.767 654.682 259.011C654.682 252.256 653.419 246.351 650.892 241.298C648.366 236.245 644.329 232.346 638.781 229.599C633.234 226.798 625.902 225.398 616.784 225.398H580.864V376H560.432ZM639.852 300.205L681.375 376H657.648L616.784 300.205H639.852ZM743.433 378.966C735.414 378.966 728.136 377.455 721.6 374.435C715.064 371.359 709.874 366.938 706.029 361.17C702.184 355.348 700.262 348.318 700.262 340.08C700.262 332.83 701.69 326.953 704.546 322.449C707.402 317.89 711.219 314.32 715.998 311.739C720.776 309.157 726.049 307.235 731.816 305.972C737.638 304.653 743.487 303.61 749.364 302.841C757.054 301.852 763.288 301.111 768.066 300.616C772.899 300.067 776.415 299.161 778.612 297.898C780.863 296.634 781.989 294.437 781.989 291.307V290.648C781.989 282.519 779.765 276.203 775.316 271.699C770.922 267.195 764.249 264.943 755.296 264.943C746.014 264.943 738.737 266.975 733.464 271.04C728.191 275.104 724.484 279.443 722.342 284.057L703.887 277.466C707.183 269.777 711.576 263.79 717.069 259.506C722.616 255.167 728.658 252.146 735.194 250.443C741.785 248.686 748.266 247.807 754.637 247.807C758.701 247.807 763.37 248.301 768.643 249.29C773.97 250.223 779.106 252.173 784.049 255.139C789.047 258.105 793.194 262.581 796.489 268.568C799.785 274.555 801.433 282.574 801.433 292.625V376H781.989V358.864H781.001C779.683 361.61 777.486 364.548 774.41 367.679C771.334 370.81 767.242 373.473 762.134 375.67C757.026 377.867 750.792 378.966 743.433 378.966ZM746.398 361.5C754.088 361.5 760.569 359.99 765.842 356.969C771.169 353.948 775.179 350.048 777.87 345.27C780.616 340.491 781.989 335.466 781.989 330.193V312.398C781.165 313.386 779.353 314.293 776.552 315.116C773.806 315.885 770.62 316.572 766.995 317.176C763.425 317.725 759.937 318.22 756.532 318.659C753.182 319.044 750.463 319.373 748.376 319.648C743.323 320.307 738.599 321.378 734.205 322.861C729.866 324.289 726.351 326.458 723.66 329.369C721.023 332.225 719.705 336.125 719.705 341.068C719.705 347.824 722.204 352.932 727.202 356.392C732.255 359.797 738.654 361.5 746.398 361.5ZM884.705 378.636C874.159 378.636 864.849 375.973 856.776 370.645C848.702 365.262 842.385 357.683 837.827 347.906C833.268 338.075 830.989 326.458 830.989 313.057C830.989 299.765 833.268 288.231 837.827 278.455C842.385 268.678 848.729 261.126 856.858 255.798C864.987 250.471 874.379 247.807 885.034 247.807C893.273 247.807 899.781 249.18 904.56 251.926C909.393 254.617 913.073 257.693 915.599 261.153C918.181 264.559 920.186 267.36 921.614 269.557H923.261V207.273H942.705V376H923.92V356.557H921.614C920.186 358.864 918.153 361.775 915.517 365.29C912.881 368.75 909.118 371.853 904.23 374.599C899.342 377.291 892.833 378.636 884.705 378.636ZM887.341 361.17C895.14 361.17 901.731 359.138 907.114 355.074C912.496 350.955 916.588 345.27 919.389 338.02C922.19 330.715 923.591 322.284 923.591 312.727C923.591 303.28 922.218 295.014 919.472 287.929C916.725 280.789 912.661 275.241 907.278 271.287C901.896 267.277 895.25 265.273 887.341 265.273C879.102 265.273 872.237 267.387 866.744 271.616C861.307 275.791 857.215 281.475 854.469 288.67C851.777 295.811 850.432 303.83 850.432 312.727C850.432 321.735 851.805 329.919 854.551 337.278C857.352 344.583 861.472 350.405 866.909 354.744C872.402 359.028 879.212 361.17 887.341 361.17ZM981.014 376V249.455H1000.46V376H981.014ZM990.901 228.364C987.111 228.364 983.843 227.073 981.097 224.491C978.405 221.91 977.06 218.807 977.06 215.182C977.06 211.557 978.405 208.454 981.097 205.872C983.843 203.291 987.111 202 990.901 202C994.69 202 997.931 203.291 1000.62 205.872C1003.37 208.454 1004.74 211.557 1004.74 215.182C1004.74 218.807 1003.37 221.91 1000.62 224.491C997.931 227.073 994.69 228.364 990.901 228.364ZM1115.82 324.261V249.455H1135.26V376H1115.82V354.58H1114.5C1111.53 361.006 1106.92 366.471 1100.66 370.974C1094.4 375.423 1086.49 377.648 1076.93 377.648C1069.02 377.648 1061.99 375.918 1055.84 372.457C1049.69 368.942 1044.86 363.67 1041.34 356.639C1037.83 349.554 1036.07 340.629 1036.07 329.864V249.455H1055.51V328.545C1055.51 337.773 1058.09 345.133 1063.26 350.625C1068.47 356.117 1075.12 358.864 1083.19 358.864C1088.03 358.864 1092.94 357.628 1097.94 355.156C1102.99 352.685 1107.22 348.895 1110.63 343.787C1114.09 338.679 1115.82 332.17 1115.82 324.261ZM1170.87 376V249.455H1189.66V269.227H1191.31C1193.94 262.472 1198.2 257.226 1204.08 253.491C1209.95 249.702 1217.01 247.807 1225.25 247.807C1233.6 247.807 1240.54 249.702 1246.09 253.491C1251.69 257.226 1256.06 262.472 1259.19 269.227H1260.51C1263.75 262.691 1268.61 257.501 1275.09 253.656C1281.57 249.757 1289.35 247.807 1298.41 247.807C1309.72 247.807 1318.98 251.349 1326.17 258.435C1333.37 265.465 1336.96 276.422 1336.96 291.307V376H1317.52V291.307C1317.52 281.97 1314.97 275.296 1309.86 271.287C1304.75 267.277 1298.74 265.273 1291.82 265.273C1282.92 265.273 1276.03 267.964 1271.14 273.347C1266.25 278.674 1263.81 285.43 1263.81 293.614V376H1244.03V289.33C1244.03 282.134 1241.7 276.34 1237.03 271.946C1232.36 267.497 1226.35 265.273 1218.99 265.273C1213.93 265.273 1209.21 266.618 1204.82 269.31C1200.48 272.001 1196.96 275.736 1194.27 280.514C1191.63 285.238 1190.32 290.703 1190.32 296.909V376H1170.87ZM1386.68 377.318C1382.62 377.318 1379.13 375.863 1376.22 372.952C1373.31 370.041 1371.86 366.553 1371.86 362.489C1371.86 358.424 1373.31 354.937 1376.22 352.026C1379.13 349.115 1382.62 347.659 1386.68 347.659C1390.75 347.659 1394.24 349.115 1397.15 352.026C1400.06 354.937 1401.51 358.424 1401.51 362.489C1401.51 365.18 1400.83 367.652 1399.45 369.903C1398.14 372.155 1396.35 373.968 1394.1 375.341C1391.9 376.659 1389.43 377.318 1386.68 377.318ZM1436.4 376V249.455H1455.85V376H1436.4ZM1446.29 228.364C1442.5 228.364 1439.23 227.073 1436.49 224.491C1433.8 221.91 1432.45 218.807 1432.45 215.182C1432.45 211.557 1433.8 208.454 1436.49 205.872C1439.23 203.291 1442.5 202 1446.29 202C1450.08 202 1453.32 203.291 1456.01 205.872C1458.76 208.454 1460.13 211.557 1460.13 215.182C1460.13 218.807 1458.76 221.91 1456.01 224.491C1453.32 227.073 1450.08 228.364 1446.29 228.364ZM1542.87 378.636C1531.44 378.636 1521.42 375.918 1512.8 370.48C1504.23 365.043 1497.53 357.436 1492.7 347.659C1487.92 337.883 1485.53 326.458 1485.53 313.386C1485.53 300.205 1487.92 288.698 1492.7 278.866C1497.53 269.035 1504.23 261.401 1512.8 255.963C1521.42 250.526 1531.44 247.807 1542.87 247.807C1554.29 247.807 1564.29 250.526 1572.86 255.963C1581.48 261.401 1588.18 269.035 1592.96 278.866C1597.79 288.698 1600.21 300.205 1600.21 313.386C1600.21 326.458 1597.79 337.883 1592.96 347.659C1588.18 357.436 1581.48 365.043 1572.86 370.48C1564.29 375.918 1554.29 378.636 1542.87 378.636ZM1542.87 361.17C1551.55 361.17 1558.69 358.946 1564.29 354.497C1569.89 350.048 1574.04 344.199 1576.73 336.949C1579.42 329.699 1580.77 321.845 1580.77 313.386C1580.77 304.928 1579.42 297.046 1576.73 289.741C1574.04 282.437 1569.89 276.532 1564.29 272.028C1558.69 267.525 1551.55 265.273 1542.87 265.273C1534.19 265.273 1527.05 267.525 1521.45 272.028C1515.85 276.532 1511.7 282.437 1509.01 289.741C1506.32 297.046 1504.97 304.928 1504.97 313.386C1504.97 321.845 1506.32 329.699 1509.01 336.949C1511.7 344.199 1515.85 350.048 1521.45 354.497C1527.05 358.946 1534.19 361.17 1542.87 361.17Z" fill="url(#paint1_linear_12_7)" shape-rendering="crispEdges"/>
</g>
<defs>
<filter id="filter0_d_12_7" x="0" y="0" width="520" height="520" filterUnits="userSpaceOnUse" color-interpolation-filters="sRGB">
<feFlood flood-opacity="0" result="BackgroundImageFix"/>
<feColorMatrix in="SourceAlpha" type="matrix" values="0 0 0 0 0 0 0 0 0 0 0 0 0 0 0 0 0 0 127 0" result="hardAlpha"/>
<feOffset dy="4"/>
<feGaussianBlur stdDeviation="2"/>
<feComposite in2="hardAlpha" operator="out"/>
<feColorMatrix type="matrix" values="0 0 0 0 0 0 0 0 0 0 0 0 0 0 0 0 0 0 0.6 0"/>
<feBlend mode="normal" in2="BackgroundImageFix" result="effect1_dropShadow_12_7"/>
<feBlend mode="normal" in="SourceGraphic" in2="effect1_dropShadow_12_7" result="shape"/>
</filter>
<filter id="filter1_d_12_7" x="557.432" y="202" width="1045.78" height="183.966" filterUnits="userSpaceOnUse" color-interpolation-filters="sRGB">
<feFlood flood-opacity="0" result="BackgroundImageFix"/>
<feColorMatrix in="SourceAlpha" type="matrix" values="0 0 0 0 0 0 0 0 0 0 0 0 0 0 0 0 0 0 127 0" result="hardAlpha"/>
<feOffset dy="4"/>
<feGaussianBlur stdDeviation="1.5"/>
<feComposite in2="hardAlpha" operator="out"/>
<feColorMatrix type="matrix" values="0 0 0 0 0 0 0 0 0 0 0 0 0 0 0 0 0 0 1 0"/>
<feBlend mode="normal" in2="BackgroundImageFix" result="effect1_dropShadow_12_7"/>
<feBlend mode="normal" in="SourceGraphic" in2="effect1_dropShadow_12_7" result="shape"/>
</filter>
<linearGradient id="paint0_linear_12_7" x1="25" y1="475.5" x2="480.5" y2="20" gradientUnits="userSpaceOnUse">
<stop stop-color="#00A1FF"/>
<stop offset="1" stop-color="#00FF84"/>
</linearGradient>
<linearGradient id="paint1_linear_12_7" x1="540" y1="291.5" x2="1600" y2="291" gradientUnits="userSpaceOnUse">
<stop stop-opacity="0.8"/>
<stop offset="0.396" stop-color="#2E2E2E"/>
<stop offset="1" stop-color="#666666"/>
</linearGradient>
</defs>
</svg>
